<?xml version="1.0" encoding="UTF-8"?>
<svg xmlns="http://www.w3.org/2000/svg" viewBox="0 0 1600 980" role="img" aria-labelledby="title desc">
  <title id="title">Three trains meeting inside one ServiceJourney half-wave</title>
  <desc id="desc">Abstract representation where one ServiceJourney is a half sine wave: bottom departure to top arrival, then top departure to bottom arrival. Train 2 branches halfway through the half-wave, while train 3 comes from above and joins halfway.</desc>
  <defs>
    <linearGradient id="bg" x1="0" y1="0" x2="1" y2="1">
      <stop offset="0" stop-color="#080f1d"/>
      <stop offset="0.5" stop-color="#132134"/>
      <stop offset="1" stop-color="#071615"/>
    </linearGradient>

    <linearGradient id="train1" x1="210" y1="0" x2="1390" y2="0" gradientUnits="userSpaceOnUse">
      <stop offset="0" stop-color="#ffc85f"/>
      <stop offset="0.5" stop-color="#fff1a8"/>
      <stop offset="1" stop-color="#ffac4c"/>
    </linearGradient>

    <linearGradient id="train2" x1="210" y1="0" x2="1040" y2="0" gradientUnits="userSpaceOnUse">
      <stop offset="0" stop-color="#61e9ff"/>
      <stop offset="0.55" stop-color="#80f1d8"/>
      <stop offset="1" stop-color="#4aa5ff"/>
    </linearGradient>

    <linearGradient id="train3" x1="560" y1="0" x2="1390" y2="0" gradientUnits="userSpaceOnUse">
      <stop offset="0" stop-color="#ffb16e"/>
      <stop offset="0.48" stop-color="#ff70aa"/>
      <stop offset="1" stop-color="#ffd06e"/>
    </linearGradient>

    <radialGradient id="meetingGlow" cx="50%" cy="50%" r="50%">
      <stop offset="0" stop-color="#fff2a8" stop-opacity="0.95"/>
      <stop offset="0.32" stop-color="#ffb84f" stop-opacity="0.42"/>
      <stop offset="1" stop-color="#ffb84f" stop-opacity="0"/>
    </radialGradient>

    <filter id="glow" x="-20%" y="-25%" width="140%" height="150%">
      <feGaussianBlur stdDeviation="5" result="blur"/>
      <feColorMatrix in="blur" type="matrix" values="1 0 0 0 0  0 1 0 0 0  0 0 1 0 0  0 0 0 0.56 0" result="soft"/>
      <feMerge>
        <feMergeNode in="soft"/>
        <feMergeNode in="SourceGraphic"/>
      </feMerge>
    </filter>

    <filter id="shadow" x="-20%" y="-20%" width="140%" height="140%">
      <feDropShadow dx="0" dy="10" stdDeviation="14" flood-color="#000000" flood-opacity="0.42"/>
    </filter>

    <marker id="arrowGold" markerWidth="12" markerHeight="12" refX="9" refY="3" orient="auto" markerUnits="strokeWidth">
      <path d="M0,0 L0,6 L9,3 z" fill="#ffd06c"/>
    </marker>
    <marker id="arrowBlue" markerWidth="12" markerHeight="12" refX="9" refY="3" orient="auto" markerUnits="strokeWidth">
      <path d="M0,0 L0,6 L9,3 z" fill="#65eaff"/>
    </marker>
    <marker id="arrowRose" markerWidth="12" markerHeight="12" refX="9" refY="3" orient="auto" markerUnits="strokeWidth">
      <path d="M0,0 L0,6 L9,3 z" fill="#ff83aa"/>
    </marker>
  </defs>

  <rect width="1600" height="980" fill="url(#bg)"/>

  <g opacity="0.3">
    <path d="M130 180 H1470" stroke="#d7e6ff" stroke-opacity="0.10"/>
    <path d="M130 300 H1470" stroke="#d7e6ff" stroke-opacity="0.10"/>
    <path d="M130 420 H1470" stroke="#d7e6ff" stroke-opacity="0.10"/>
    <path d="M130 540 H1470" stroke="#d7e6ff" stroke-opacity="0.18"/>
    <path d="M130 660 H1470" stroke="#d7e6ff" stroke-opacity="0.10"/>
    <path d="M130 780 H1470" stroke="#d7e6ff" stroke-opacity="0.10"/>
    <path d="M210 140 V835" stroke="#d7e6ff" stroke-opacity="0.08"/>
    <path d="M800 140 V835" stroke="#fff0a5" stroke-opacity="0.35" stroke-dasharray="8 12"/>
    <path d="M1390 140 V835" stroke="#d7e6ff" stroke-opacity="0.08"/>
  </g>

  <g filter="url(#shadow)">
    <text x="106" y="92" fill="#f8efd9" font-family="Georgia, 'Times New Roman', serif" font-size="46">Brytning inne i halvbølgen</text>
    <text x="110" y="130" fill="#b3c1d3" font-family="Verdana, sans-serif" font-size="18">Bunn = avgang, topp = ankomst. Tog 2 bryter av midtveis; Tog 3 kommer ovenfra og kobler pa midtveis.</text>
  </g>

  <g font-family="Verdana, sans-serif" font-size="16" fill="#9fb2c8">
    <text x="210" y="858" text-anchor="middle">bunn / avgang</text>
    <text x="800" y="858" text-anchor="middle" fill="#fff0a5">midtveis / kobling</text>
    <text x="1390" y="858" text-anchor="middle">topp / ankomst</text>
  </g>

  <g fill="none" stroke-linecap="round" stroke-linejoin="round">
    <path d="M210 760 C360 760 535 540 800 540 C1065 540 1240 320 1390 320" stroke="#ffffff" stroke-opacity="0.1" stroke-width="42"/>
    <path d="M210 760 C360 760 535 540 800 540" stroke="#69eaff" stroke-opacity="0.14" stroke-width="50"/>
    <path d="M800 540 C1065 540 1240 320 1390 320" stroke="#ff81ad" stroke-opacity="0.14" stroke-width="50"/>
  </g>

  <circle cx="800" cy="540" r="128" fill="url(#meetingGlow)" opacity="0.82"/>

  <g fill="none" stroke-linecap="round" stroke-linejoin="round" opacity="0.3">
    <path d="M130 760 C160 815 195 815 210 760" stroke="url(#train1)" stroke-width="5" stroke-dasharray="8 12"/>
    <path d="M1390 320 C1410 245 1450 245 1470 320" stroke="url(#train1)" stroke-width="5" stroke-dasharray="8 12"/>
    <path d="M980 730 C1025 650 1038 572 1040 510" stroke="url(#train2)" stroke-width="5" stroke-dasharray="8 12"/>
    <path d="M560 160 C595 300 655 430 800 540" stroke="url(#train3)" stroke-width="5" stroke-dasharray="8 12"/>
  </g>

  <g fill="none" stroke-linecap="round" stroke-linejoin="round" filter="url(#glow)">
    <path d="M210 760 C360 760 535 540 800 540 C1065 540 1240 320 1390 320" stroke="url(#train1)" stroke-width="14" marker-end="url(#arrowGold)"/>
    <path d="M210 790 C360 790 535 570 800 570 C930 570 1018 610 1040 720" stroke="url(#train2)" stroke-width="10" marker-end="url(#arrowBlue)"/>
    <path d="M560 170 C590 310 655 455 800 510 C1065 510 1240 290 1390 290" stroke="url(#train3)" stroke-width="10" marker-end="url(#arrowRose)"/>
  </g>

  <g fill="#111928">
    <circle cx="210" cy="760" r="13" stroke="#ffd06c" stroke-width="4"/>
    <circle cx="1390" cy="320" r="13" stroke="#ffd06c" stroke-width="4"/>
    <circle cx="210" cy="790" r="11" stroke="#65eaff" stroke-width="4"/>
    <circle cx="1040" cy="720" r="11" stroke="#65eaff" stroke-width="4"/>
    <circle cx="560" cy="170" r="11" stroke="#ff83aa" stroke-width="4"/>
    <circle cx="1390" cy="290" r="11" stroke="#ff83aa" stroke-width="4"/>
    <circle cx="800" cy="540" r="22" stroke="#fff0a5" stroke-width="5"/>
    <circle cx="800" cy="540" r="8" fill="#fff0a5"/>
  </g>

  <g font-family="Verdana, sans-serif" fill="#edf5ff" filter="url(#shadow)">
    <g transform="translate(92 594)">
      <rect x="0" y="0" width="424" height="156" rx="18" fill="#0d1626" fill-opacity="0.78" stroke="#ffffff" stroke-opacity="0.12"/>
      <path d="M28 40 H96" stroke="url(#train1)" stroke-width="9" stroke-linecap="round"/>
      <text x="116" y="45" font-size="16">Tog 1: hel halvbølge, avgang til ankomst</text>
      <path d="M28 82 H96" stroke="url(#train2)" stroke-width="9" stroke-linecap="round"/>
      <text x="116" y="87" font-size="16">Tog 2: felles forste del, bryter av</text>
      <path d="M28 124 H96" stroke="url(#train3)" stroke-width="9" stroke-linecap="round"/>
      <text x="116" y="129" font-size="16">Tog 3: kommer ovenfra, deler siste del</text>
    </g>

    <g transform="translate(1050 575)">
      <rect x="0" y="0" width="360" height="112" rx="18" fill="#0d1626" fill-opacity="0.78" stroke="#fff0a5" stroke-opacity="0.22"/>
      <text x="24" y="34" font-size="18" fill="#fff0a5">ServiceJourney</text>
      <text x="24" y="63" font-size="15" fill="#becbe0">er halvbølgen.</text>
      <text x="24" y="89" font-size="15" fill="#becbe0">Brytningen skjer midt i den.</text>
    </g>
  </g>

  <g font-family="Verdana, sans-serif" font-size="16" fill="#dbe7f7">
    <text x="372" y="515" text-anchor="middle" fill="#a6f4ff">Tog 1 + Tog 2</text>
    <text x="1125" y="468" text-anchor="middle" fill="#ffb5ce">Tog 1 + Tog 3</text>
    <text x="800" y="485" text-anchor="middle" fill="#fff0a5">Boden / bytte</text>
  </g>

  <g font-family="Verdana, sans-serif" font-size="14" fill="#9fb3c8">
    <text x="800" y="920" text-anchor="middle">Lesning: Tog 1 sin halvbølge er hele ServiceJourney. Tog 2 deler venstre del og går ut. Tog 3 kommer ovenfra og deler høyre del.</text>
  </g>
</svg>